<mxfile host="app.diagrams.net" modified="2024-04-15T19:22:21.406Z" agent="Mozilla/5.0 (Macintosh; Intel Mac OS X 10.15; rv:124.0) Gecko/20100101 Firefox/124.0" etag="UL7QgHUnSatsduVOEKxO" version="24.0.1" type="github">
  <diagram name="Page-1" id="67xksmJ78AfvNaxmE6AR">
    <mxGraphModel dx="1105" dy="721" grid="1" gridSize="10" guides="1" tooltips="1" connect="1" arrows="1" fold="1" page="1" pageScale="1" pageWidth="850" pageHeight="1100" math="0" shadow="0">
      <root>
        <mxCell id="0" />
        <mxCell id="1" parent="0" />
        <mxCell id="dujsmi20pfE95rZrzk__-4" style="edgeStyle=orthogonalEdgeStyle;rounded=0;orthogonalLoop=1;jettySize=auto;html=1;exitX=1;exitY=0.25;exitDx=0;exitDy=0;shadow=0;textShadow=0;sketch=1;curveFitting=1;jiggle=2;flowAnimation=0;fillColor=#ffe6cc;strokeColor=#d79b00;strokeWidth=2;entryX=0;entryY=0.5;entryDx=0;entryDy=0;" edge="1" parent="1" source="dujsmi20pfE95rZrzk__-1" target="dujsmi20pfE95rZrzk__-46">
          <mxGeometry relative="1" as="geometry">
            <mxPoint x="600" y="215" as="targetPoint" />
          </mxGeometry>
        </mxCell>
        <mxCell id="dujsmi20pfE95rZrzk__-5" value="&lt;div style=&quot;font-size: 13px;&quot;&gt;Subscribe / Unsubscribe Stream&lt;/div&gt;" style="edgeLabel;html=1;align=center;verticalAlign=middle;resizable=0;points=[];labelBackgroundColor=none;fontSize=13;spacingTop=2;" vertex="1" connectable="0" parent="dujsmi20pfE95rZrzk__-4">
          <mxGeometry x="0.3196" y="-2" relative="1" as="geometry">
            <mxPoint x="-62" y="-14" as="offset" />
          </mxGeometry>
        </mxCell>
        <mxCell id="dujsmi20pfE95rZrzk__-1" value="Client gRPC" style="rounded=1;whiteSpace=wrap;html=1;sketch=1;curveFitting=1;jiggle=2;shadow=0;textShadow=0;glass=0;fillColor=#dae8fc;strokeColor=#6c8ebf;fontStyle=1" vertex="1" parent="1">
          <mxGeometry x="180" y="180" width="120" height="100" as="geometry" />
        </mxCell>
        <mxCell id="dujsmi20pfE95rZrzk__-6" style="edgeStyle=orthogonalEdgeStyle;rounded=0;orthogonalLoop=1;jettySize=auto;html=1;entryX=1;entryY=0.75;entryDx=0;entryDy=0;shadow=0;textShadow=0;sketch=1;curveFitting=1;jiggle=2;fillColor=#e1d5e7;strokeColor=#9673a6;strokeWidth=2;exitX=0.5;exitY=1;exitDx=0;exitDy=0;" edge="1" parent="1" source="dujsmi20pfE95rZrzk__-46" target="dujsmi20pfE95rZrzk__-1">
          <mxGeometry relative="1" as="geometry">
            <mxPoint x="580" y="245" as="sourcePoint" />
          </mxGeometry>
        </mxCell>
        <mxCell id="dujsmi20pfE95rZrzk__-7" value="&lt;div style=&quot;font-size: 13px;&quot;&gt;Data Update Stream&lt;/div&gt;" style="edgeLabel;html=1;align=center;verticalAlign=middle;resizable=0;points=[];labelBackgroundColor=none;fontSize=13;spacingTop=3;" vertex="1" connectable="0" parent="dujsmi20pfE95rZrzk__-6">
          <mxGeometry x="0.072" y="2" relative="1" as="geometry">
            <mxPoint x="-28" y="-17" as="offset" />
          </mxGeometry>
        </mxCell>
        <mxCell id="dujsmi20pfE95rZrzk__-21" value="Server gRPC" style="swimlane;whiteSpace=wrap;html=1;rounded=1;sketch=1;curveFitting=1;jiggle=2;fillColor=#dae8fc;strokeColor=#6c8ebf;" vertex="1" parent="1">
          <mxGeometry x="520" y="110" width="170" height="410" as="geometry" />
        </mxCell>
        <mxCell id="dujsmi20pfE95rZrzk__-46" value="Subscription&lt;br&gt;Manager" style="shape=trapezoid;perimeter=trapezoidPerimeter;whiteSpace=wrap;html=1;fixedSize=1;fillColor=#ffe6cc;strokeColor=#d79b00;rounded=1;sketch=1;curveFitting=1;jiggle=2;shadow=0;textShadow=0;fontStyle=1" vertex="1" parent="dujsmi20pfE95rZrzk__-21">
          <mxGeometry x="30" y="70" width="110" height="50" as="geometry" />
        </mxCell>
        <mxCell id="dujsmi20pfE95rZrzk__-41" style="edgeStyle=orthogonalEdgeStyle;rounded=0;orthogonalLoop=1;jettySize=auto;html=1;exitX=0;exitY=0.5;exitDx=0;exitDy=0;exitPerimeter=0;entryX=1;entryY=0.5;entryDx=0;entryDy=0;sketch=1;curveFitting=1;jiggle=2;shadow=0;textShadow=0;fillColor=#e1d5e7;strokeColor=#9673a6;strokeWidth=4;" edge="1" parent="1" source="dujsmi20pfE95rZrzk__-38" target="dujsmi20pfE95rZrzk__-22">
          <mxGeometry relative="1" as="geometry" />
        </mxCell>
        <mxCell id="dujsmi20pfE95rZrzk__-44" value="Data Update Stream" style="edgeLabel;html=1;align=center;verticalAlign=middle;resizable=0;points=[];fontSize=13;spacingTop=2;labelBackgroundColor=none;" vertex="1" connectable="0" parent="dujsmi20pfE95rZrzk__-41">
          <mxGeometry x="-0.4727" y="-1" relative="1" as="geometry">
            <mxPoint x="-30" y="-14" as="offset" />
          </mxGeometry>
        </mxCell>
        <mxCell id="dujsmi20pfE95rZrzk__-38" value="Data&lt;br&gt;Cache" style="shape=cylinder3;whiteSpace=wrap;html=1;boundedLbl=1;backgroundOutline=1;size=15;fillColor=#e1d5e7;strokeColor=#9673a6;sketch=1;curveFitting=1;jiggle=2;shadow=0;textShadow=0;fontStyle=1" vertex="1" parent="1">
          <mxGeometry x="940" y="110" width="70" height="90" as="geometry" />
        </mxCell>
        <mxCell id="dujsmi20pfE95rZrzk__-59" style="edgeStyle=orthogonalEdgeStyle;rounded=0;orthogonalLoop=1;jettySize=auto;html=1;exitX=0;exitY=0.5;exitDx=0;exitDy=0;entryX=0.5;entryY=0;entryDx=0;entryDy=0;fillColor=#e1d5e7;strokeColor=#9673a6;sketch=1;curveFitting=1;jiggle=2;shadow=0;textShadow=0;strokeWidth=5;" edge="1" parent="1" source="dujsmi20pfE95rZrzk__-22" target="dujsmi20pfE95rZrzk__-52">
          <mxGeometry relative="1" as="geometry">
            <Array as="points">
              <mxPoint x="670" y="155" />
              <mxPoint x="670" y="270" />
              <mxPoint x="605" y="270" />
            </Array>
          </mxGeometry>
        </mxCell>
        <mxCell id="dujsmi20pfE95rZrzk__-22" value="ZIO&lt;br&gt;Hub" style="ellipse;whiteSpace=wrap;html=1;aspect=fixed;sketch=1;curveFitting=1;jiggle=2;shadow=0;textShadow=0;fillColor=#e1d5e7;strokeColor=#9673a6;fontStyle=1" vertex="1" parent="1">
          <mxGeometry x="700" y="120" width="70" height="70" as="geometry" />
        </mxCell>
        <mxCell id="dujsmi20pfE95rZrzk__-23" style="rounded=0;orthogonalLoop=1;jettySize=auto;html=1;exitX=0;exitY=0.5;exitDx=0;exitDy=0;sketch=1;curveFitting=1;jiggle=2;shadow=0;textShadow=0;fillColor=#e1d5e7;strokeColor=#9673a6;entryX=0.5;entryY=0;entryDx=0;entryDy=0;strokeWidth=4;edgeStyle=orthogonalEdgeStyle;" edge="1" parent="1" source="dujsmi20pfE95rZrzk__-22" target="dujsmi20pfE95rZrzk__-46">
          <mxGeometry relative="1" as="geometry">
            <mxPoint x="550" y="250" as="targetPoint" />
          </mxGeometry>
        </mxCell>
        <mxCell id="dujsmi20pfE95rZrzk__-47" style="edgeStyle=orthogonalEdgeStyle;rounded=0;orthogonalLoop=1;jettySize=auto;html=1;exitX=1;exitY=0.25;exitDx=0;exitDy=0;shadow=0;textShadow=0;sketch=1;curveFitting=1;jiggle=2;flowAnimation=0;fillColor=#ffe6cc;strokeColor=#d79b00;strokeWidth=2;entryX=0;entryY=0.5;entryDx=0;entryDy=0;" edge="1" parent="1" source="dujsmi20pfE95rZrzk__-49" target="dujsmi20pfE95rZrzk__-52">
          <mxGeometry relative="1" as="geometry">
            <mxPoint x="600" y="335" as="targetPoint" />
          </mxGeometry>
        </mxCell>
        <mxCell id="dujsmi20pfE95rZrzk__-48" value="&lt;div style=&quot;font-size: 13px;&quot;&gt;Subscribe / Unsubscribe Stream&lt;/div&gt;" style="edgeLabel;html=1;align=center;verticalAlign=middle;resizable=0;points=[];labelBackgroundColor=none;fontSize=13;spacingTop=2;" vertex="1" connectable="0" parent="dujsmi20pfE95rZrzk__-47">
          <mxGeometry x="0.3196" y="-2" relative="1" as="geometry">
            <mxPoint x="-62" y="-14" as="offset" />
          </mxGeometry>
        </mxCell>
        <mxCell id="dujsmi20pfE95rZrzk__-49" value="Client gRPC" style="rounded=1;whiteSpace=wrap;html=1;sketch=1;curveFitting=1;jiggle=2;shadow=0;textShadow=0;glass=0;fillColor=#dae8fc;strokeColor=#6c8ebf;fontStyle=1" vertex="1" parent="1">
          <mxGeometry x="180" y="300" width="120" height="100" as="geometry" />
        </mxCell>
        <mxCell id="dujsmi20pfE95rZrzk__-50" style="edgeStyle=orthogonalEdgeStyle;rounded=0;orthogonalLoop=1;jettySize=auto;html=1;entryX=1;entryY=0.75;entryDx=0;entryDy=0;shadow=0;textShadow=0;sketch=1;curveFitting=1;jiggle=2;fillColor=#e1d5e7;strokeColor=#9673a6;strokeWidth=2;exitX=0.5;exitY=1;exitDx=0;exitDy=0;" edge="1" parent="1" source="dujsmi20pfE95rZrzk__-52" target="dujsmi20pfE95rZrzk__-49">
          <mxGeometry relative="1" as="geometry">
            <mxPoint x="580" y="365" as="sourcePoint" />
          </mxGeometry>
        </mxCell>
        <mxCell id="dujsmi20pfE95rZrzk__-51" value="&lt;div style=&quot;font-size: 13px;&quot;&gt;Data Update Stream&lt;/div&gt;" style="edgeLabel;html=1;align=center;verticalAlign=middle;resizable=0;points=[];labelBackgroundColor=none;fontSize=13;spacingTop=9;" vertex="1" connectable="0" parent="dujsmi20pfE95rZrzk__-50">
          <mxGeometry x="0.072" y="2" relative="1" as="geometry">
            <mxPoint x="-28" y="-17" as="offset" />
          </mxGeometry>
        </mxCell>
        <mxCell id="dujsmi20pfE95rZrzk__-72" style="edgeStyle=orthogonalEdgeStyle;rounded=0;orthogonalLoop=1;jettySize=auto;html=1;exitX=1;exitY=0.5;exitDx=0;exitDy=0;entryX=0;entryY=0.5;entryDx=0;entryDy=0;dashed=1;strokeWidth=2;fillColor=#ffe6cc;strokeColor=#d79b00;sketch=1;curveFitting=1;jiggle=2;shadow=0;textShadow=0;" edge="1" parent="1" source="dujsmi20pfE95rZrzk__-52" target="dujsmi20pfE95rZrzk__-79">
          <mxGeometry relative="1" as="geometry">
            <mxPoint x="850" y="255" as="targetPoint" />
            <Array as="points">
              <mxPoint x="710" y="325" />
              <mxPoint x="710" y="293" />
            </Array>
          </mxGeometry>
        </mxCell>
        <mxCell id="dujsmi20pfE95rZrzk__-52" value="Subscription&lt;br&gt;Manager" style="shape=trapezoid;perimeter=trapezoidPerimeter;whiteSpace=wrap;html=1;fixedSize=1;fillColor=#ffe6cc;strokeColor=#d79b00;rounded=1;sketch=1;curveFitting=1;jiggle=2;fontStyle=1" vertex="1" parent="1">
          <mxGeometry x="550" y="300" width="110" height="50" as="geometry" />
        </mxCell>
        <mxCell id="dujsmi20pfE95rZrzk__-53" style="edgeStyle=orthogonalEdgeStyle;rounded=0;orthogonalLoop=1;jettySize=auto;html=1;exitX=1;exitY=0.25;exitDx=0;exitDy=0;shadow=0;textShadow=0;sketch=1;curveFitting=1;jiggle=2;flowAnimation=0;fillColor=#ffe6cc;strokeColor=#d79b00;strokeWidth=2;entryX=0;entryY=0.5;entryDx=0;entryDy=0;" edge="1" parent="1" source="dujsmi20pfE95rZrzk__-55" target="dujsmi20pfE95rZrzk__-58">
          <mxGeometry relative="1" as="geometry">
            <mxPoint x="600" y="455" as="targetPoint" />
          </mxGeometry>
        </mxCell>
        <mxCell id="dujsmi20pfE95rZrzk__-54" value="&lt;div style=&quot;font-size: 13px;&quot;&gt;Subscribe / Unsubscribe Stream&lt;/div&gt;" style="edgeLabel;html=1;align=center;verticalAlign=middle;resizable=0;points=[];labelBackgroundColor=none;fontSize=13;spacingTop=2;" vertex="1" connectable="0" parent="dujsmi20pfE95rZrzk__-53">
          <mxGeometry x="0.3196" y="-2" relative="1" as="geometry">
            <mxPoint x="-62" y="-14" as="offset" />
          </mxGeometry>
        </mxCell>
        <mxCell id="dujsmi20pfE95rZrzk__-55" value="Client gRPC" style="rounded=1;whiteSpace=wrap;html=1;sketch=1;curveFitting=1;jiggle=2;shadow=0;textShadow=0;glass=0;fillColor=#dae8fc;strokeColor=#6c8ebf;fontStyle=1" vertex="1" parent="1">
          <mxGeometry x="180" y="420" width="120" height="100" as="geometry" />
        </mxCell>
        <mxCell id="dujsmi20pfE95rZrzk__-56" style="edgeStyle=orthogonalEdgeStyle;rounded=0;orthogonalLoop=1;jettySize=auto;html=1;entryX=1;entryY=0.75;entryDx=0;entryDy=0;shadow=0;textShadow=0;sketch=1;curveFitting=1;jiggle=2;fillColor=#e1d5e7;strokeColor=#9673a6;strokeWidth=2;exitX=0.5;exitY=1;exitDx=0;exitDy=0;" edge="1" parent="1" source="dujsmi20pfE95rZrzk__-58" target="dujsmi20pfE95rZrzk__-55">
          <mxGeometry relative="1" as="geometry">
            <mxPoint x="580" y="485" as="sourcePoint" />
          </mxGeometry>
        </mxCell>
        <mxCell id="dujsmi20pfE95rZrzk__-57" value="&lt;div style=&quot;font-size: 13px;&quot;&gt;Data Update Stream&lt;/div&gt;" style="edgeLabel;html=1;align=center;verticalAlign=middle;resizable=0;points=[];labelBackgroundColor=none;fontSize=13;spacingTop=3;" vertex="1" connectable="0" parent="dujsmi20pfE95rZrzk__-56">
          <mxGeometry x="0.072" y="2" relative="1" as="geometry">
            <mxPoint x="-28" y="-17" as="offset" />
          </mxGeometry>
        </mxCell>
        <mxCell id="dujsmi20pfE95rZrzk__-70" style="edgeStyle=orthogonalEdgeStyle;rounded=0;orthogonalLoop=1;jettySize=auto;html=1;exitX=1;exitY=0.5;exitDx=0;exitDy=0;entryX=0;entryY=0.5;entryDx=0;entryDy=0;fillColor=#ffe6cc;strokeColor=#d79b00;dashed=1;strokeWidth=2;sketch=1;curveFitting=1;jiggle=2;shadow=0;textShadow=0;" edge="1" parent="1" source="dujsmi20pfE95rZrzk__-58" target="dujsmi20pfE95rZrzk__-79">
          <mxGeometry relative="1" as="geometry">
            <mxPoint x="850" y="255" as="targetPoint" />
            <Array as="points">
              <mxPoint x="710" y="445" />
              <mxPoint x="710" y="293" />
            </Array>
          </mxGeometry>
        </mxCell>
        <mxCell id="dujsmi20pfE95rZrzk__-58" value="Subscription&lt;br&gt;Manager" style="shape=trapezoid;perimeter=trapezoidPerimeter;whiteSpace=wrap;html=1;fixedSize=1;fillColor=#ffe6cc;strokeColor=#d79b00;rounded=1;sketch=1;curveFitting=1;jiggle=2;fontStyle=1" vertex="1" parent="1">
          <mxGeometry x="550" y="420" width="110" height="50" as="geometry" />
        </mxCell>
        <mxCell id="dujsmi20pfE95rZrzk__-60" style="edgeStyle=orthogonalEdgeStyle;rounded=0;orthogonalLoop=1;jettySize=auto;html=1;exitX=0;exitY=0.5;exitDx=0;exitDy=0;entryX=0.5;entryY=0;entryDx=0;entryDy=0;fillColor=#e1d5e7;strokeColor=#9673a6;sketch=1;curveFitting=1;jiggle=2;shadow=0;textShadow=0;strokeWidth=5;" edge="1" parent="1" source="dujsmi20pfE95rZrzk__-22" target="dujsmi20pfE95rZrzk__-58">
          <mxGeometry relative="1" as="geometry">
            <mxPoint x="815" y="242.5" as="sourcePoint" />
            <mxPoint x="720" y="387.5" as="targetPoint" />
            <Array as="points">
              <mxPoint x="670" y="155" />
              <mxPoint x="670" y="390" />
              <mxPoint x="605" y="390" />
            </Array>
          </mxGeometry>
        </mxCell>
        <mxCell id="dujsmi20pfE95rZrzk__-61" value="External&lt;br&gt;Data" style="shape=cylinder3;whiteSpace=wrap;html=1;boundedLbl=1;backgroundOutline=1;size=15;fillColor=#d5e8d4;strokeColor=#82b366;sketch=1;curveFitting=1;jiggle=2;shadow=0;textShadow=0;fontStyle=1" vertex="1" parent="1">
          <mxGeometry x="880" y="378" width="110" height="130" as="geometry" />
        </mxCell>
        <mxCell id="dujsmi20pfE95rZrzk__-65" style="edgeStyle=orthogonalEdgeStyle;rounded=0;orthogonalLoop=1;jettySize=auto;html=1;exitX=0.855;exitY=0;exitDx=0;exitDy=4.35;exitPerimeter=0;entryX=0.5;entryY=1;entryDx=0;entryDy=0;entryPerimeter=0;fillColor=#d5e8d4;strokeColor=#82b366;sketch=1;curveFitting=1;jiggle=2;shadow=0;textShadow=0;strokeWidth=4;" edge="1" parent="1" source="dujsmi20pfE95rZrzk__-61" target="dujsmi20pfE95rZrzk__-38">
          <mxGeometry relative="1" as="geometry" />
        </mxCell>
        <mxCell id="dujsmi20pfE95rZrzk__-66" style="edgeStyle=orthogonalEdgeStyle;rounded=0;orthogonalLoop=1;jettySize=auto;html=1;entryX=0.145;entryY=0;entryDx=0;entryDy=4.35;entryPerimeter=0;fillColor=#d5e8d4;strokeColor=#82b366;sketch=1;curveFitting=1;jiggle=2;shadow=0;textShadow=0;strokeWidth=4;exitX=0.5;exitY=1;exitDx=0;exitDy=0;" edge="1" parent="1" source="dujsmi20pfE95rZrzk__-75" target="dujsmi20pfE95rZrzk__-61">
          <mxGeometry relative="1" as="geometry">
            <mxPoint x="895" y="338" as="sourcePoint" />
          </mxGeometry>
        </mxCell>
        <mxCell id="dujsmi20pfE95rZrzk__-73" style="edgeStyle=orthogonalEdgeStyle;rounded=0;orthogonalLoop=1;jettySize=auto;html=1;exitX=1;exitY=0.5;exitDx=0;exitDy=0;entryX=0;entryY=0.5;entryDx=0;entryDy=0;sketch=1;curveFitting=1;jiggle=2;shadow=0;textShadow=0;dashed=1;fillColor=#ffe6cc;strokeColor=#d79b00;strokeWidth=2;" edge="1" parent="1" source="dujsmi20pfE95rZrzk__-46" target="dujsmi20pfE95rZrzk__-79">
          <mxGeometry relative="1" as="geometry">
            <mxPoint x="850" y="255" as="targetPoint" />
            <Array as="points">
              <mxPoint x="710" y="205" />
              <mxPoint x="710" y="293" />
            </Array>
          </mxGeometry>
        </mxCell>
        <mxCell id="dujsmi20pfE95rZrzk__-75" value="ZIO&lt;br&gt;Queue" style="shape=step;perimeter=stepPerimeter;whiteSpace=wrap;html=1;fixedSize=1;rounded=1;sketch=1;curveFitting=1;jiggle=2;fillColor=#d5e8d4;strokeColor=#82b366;shadow=0;textShadow=0;fontStyle=1" vertex="1" parent="1">
          <mxGeometry x="840" y="258" width="110" height="70" as="geometry" />
        </mxCell>
        <mxCell id="dujsmi20pfE95rZrzk__-79" value="Cached" style="rhombus;whiteSpace=wrap;html=1;fillColor=#ffe6cc;strokeColor=#d79b00;rounded=1;sketch=1;curveFitting=1;jiggle=2;shadow=0;textShadow=0;fontStyle=1" vertex="1" parent="1">
          <mxGeometry x="740" y="258" width="70" height="70" as="geometry" />
        </mxCell>
        <mxCell id="dujsmi20pfE95rZrzk__-81" style="edgeStyle=orthogonalEdgeStyle;rounded=0;orthogonalLoop=1;jettySize=auto;html=1;sketch=1;curveFitting=1;jiggle=2;shadow=0;textShadow=0;dashed=1;fillColor=#ffe6cc;strokeColor=#d79b00;strokeWidth=2;entryX=0;entryY=0.5;entryDx=0;entryDy=0;exitX=1;exitY=0.5;exitDx=0;exitDy=0;" edge="1" parent="1" source="dujsmi20pfE95rZrzk__-79" target="dujsmi20pfE95rZrzk__-75">
          <mxGeometry relative="1" as="geometry">
            <mxPoint x="740" y="398" as="sourcePoint" />
            <mxPoint x="870" y="398" as="targetPoint" />
            <Array as="points">
              <mxPoint x="840" y="293" />
              <mxPoint x="840" y="293" />
            </Array>
          </mxGeometry>
        </mxCell>
        <mxCell id="dujsmi20pfE95rZrzk__-83" value="No" style="edgeLabel;html=1;align=center;verticalAlign=middle;resizable=0;points=[];labelBackgroundColor=default;spacing=2;spacingTop=7;spacingLeft=-11;" vertex="1" connectable="0" parent="dujsmi20pfE95rZrzk__-81">
          <mxGeometry x="-0.32" relative="1" as="geometry">
            <mxPoint y="-5" as="offset" />
          </mxGeometry>
        </mxCell>
        <mxCell id="dujsmi20pfE95rZrzk__-82" style="edgeStyle=orthogonalEdgeStyle;rounded=0;orthogonalLoop=1;jettySize=auto;html=1;sketch=1;curveFitting=1;jiggle=2;shadow=0;textShadow=0;dashed=1;fillColor=#ffe6cc;strokeColor=#d79b00;strokeWidth=2;entryX=0;entryY=1;entryDx=0;entryDy=-15;exitX=0.5;exitY=0;exitDx=0;exitDy=0;entryPerimeter=0;" edge="1" parent="1" source="dujsmi20pfE95rZrzk__-79" target="dujsmi20pfE95rZrzk__-38">
          <mxGeometry relative="1" as="geometry">
            <mxPoint x="830" y="265" as="sourcePoint" />
            <mxPoint x="870" y="265" as="targetPoint" />
            <Array as="points">
              <mxPoint x="775" y="185" />
            </Array>
          </mxGeometry>
        </mxCell>
        <mxCell id="dujsmi20pfE95rZrzk__-84" value="Yes" style="edgeLabel;html=1;align=center;verticalAlign=middle;resizable=0;points=[];spacingTop=12;" vertex="1" connectable="0" parent="dujsmi20pfE95rZrzk__-82">
          <mxGeometry x="-0.84" relative="1" as="geometry">
            <mxPoint as="offset" />
          </mxGeometry>
        </mxCell>
      </root>
    </mxGraphModel>
  </diagram>
</mxfile>
